<svg preserveAspectRatio="none" overflow="visible" style="display: block;" width="102" height="102" viewBox="0 0 102 102" fill="none" xmlns="http://www.w3.org/2000/svg">
<g id="#78">
<path id="Vector" d="M51.0086 93.5L14.2026 72.25V29.75L51.0086 8.5L87.8147 29.75V72.25L51.0086 93.5ZM51.0086 8.5L50.9666 43.7291M51.0086 93.5L50.9161 50.9837M50.9666 43.7291L87.7726 64.9791L50.9666 86.2291L14.1605 64.9791L50.9666 43.7291ZM50.9161 50.9837L14.11 29.7337M50.9161 50.9837L87.7222 29.7337M50.9666 35.4981L87.7726 56.7481L50.9666 77.9981L14.1605 56.7481L50.9666 35.4981ZM50.9666 26.7182L87.7726 47.9682L50.9666 69.2182L14.1605 47.9682L50.9666 26.7182ZM50.9666 17.5541L87.7726 38.8041L50.9666 60.0541L14.1605 38.8041L50.9666 17.5541Z" stroke="#25166B" stroke-width="0.4" stroke-linecap="round" stroke-linejoin="round"/>
</g>
</svg>
